# exported with NifSkope

mtllib NCRrhat.mtl

# thebear

g thebear
usemtl Material.000001

v -2.4143269062042236 7.7718057632446289 123.13232421875
v -0.47511929273605347 8.5254497528076172 123.13232421875
v -2.4143269062042236 7.7718062400817871 124.57610321044922
v -0.47255301475524902 8.5252399444580078 124.57610321044922
v -2.4143269062042236 7.7718071937561035 126.3687744140625
v -0.46937835216522217 8.5249795913696289 126.3687744140625
v 1.6270172595977783 8.3263483047485352 126.3687744140625
v -2.4143269062042236 7.7718062400817871 124.57610321044922
v -0.47255295515060425 8.5252399444580078 124.57610321044922
v -2.4143269062042236 7.7718071937561035 123.13232421875
v -0.47511929273605347 8.5254507064819336 123.13232421875
v 1.6206681728363037 8.326869010925293 124.57610321044922
v 1.6155356168746948 8.3272914886474609 123.13232421875
v 2.7457711696624756 7.4449605941772461 123.13232421875
v 2.7457711696624756 7.4449605941772461 124.57610321044922
v -2.4143269062042236 7.7718071937561035 126.3687744140625
v -0.46937823295593262 8.5249814987182617 126.3687744140625
v 1.6270174980163574 8.326350212097168 126.3687744140625
vt 0.8649144172668457 0.58112281560897827
vt 0.86491435766220093 0.67209875583648682
vt 0.92517602443695068 0.58112287521362305
vt 0.92517602443695068 0.67221003770828247
vt 1 0.58112287521362305
vt 1 0.67234820127487183
vt 1 0.76357352733612061
vt 0.92517602443695068 0.58112287521362305
vt 0.92517602443695068 0.67221003770828247
vt 0.8649144172668457 0.58112281560897827
vt 0.86491435766220093 0.67209875583648682
vt 0.92517602443695068 0.76329720020294189
vt 0.86491429805755615 0.76307475566864014
vt 0.86491429805755615 0.84174895286560059
vt 0.92517602443695068 0.84174895286560059
vt 1 0.58112287521362305
vt 1 0.67234820127487183
vt 1 0.76357352733612061
vn 0.36223271489143372 -0.93208771944046021 0
vn 0.36198964715003967 -0.93218207359313965 -0.00036623183405026793
vn 0.36189979314804077 -0.93221694231033325 -0.00024415570078417659
vn 0.25263309478759766 -0.96756207942962646 -0.00036622336483560503
vn 0.36141359806060791 -0.93240553140640259 -0.00036623570485971868
vn 0.13706183433532715 -0.99056243896484375 -0.00036623066989704967
vn -0.094304993748664856 -0.99554336071014404 0
vn -0.36153000593185425 0.93236047029495239 0.00024415331427007914
vn -0.1374594122171402 0.99050736427307129 0.00024415526422671974
vn -0.36198964715003967 0.93218207359313965 0.00036623183405026793
vn -0.059237256646156311 0.99824392795562744 0.00021363256382755935
vn 0.31522959470748901 0.94901531934738159 -0.00042726442916318774
vn 0.36967971920967102 0.92915868759155273 -0.0010376545833423734
vn 0.6161268949508667 0.78764629364013672 -0.00097662280313670635
vn 0.61691540479660034 0.78702950477600098 0
vn -0.36110714077949524 0.93252432346343994 0
vn -0.21460968255996704 0.97669988870620728 0.00024415209190919995
vn 0.09433523565530777 0.99554049968719482 -3.0519327992806211e-05
f 1/1/1 2/2/2 3/3/3
f 2/2/2 4/4/4 3/3/3
f 3/3/3 4/4/4 5/5/5
f 4/4/4 6/6/6 5/5/5
f 6/6/6 4/4/4 7/7/7
f 8/8/8 9/9/9 10/10/10
f 10/10/10 9/9/9 11/11/11
f 9/9/9 12/12/12 11/11/11
f 11/11/11 12/12/12 13/13/13
f 12/12/12 14/14/14 13/13/13
f 14/14/14 12/12/12 15/15/15
f 16/16/16 17/17/17 8/8/8
f 8/8/8 17/17/17 9/9/9
f 17/17/17 18/18/18 9/9/9
f 9/9/9 18/18/18 12/12/12
